<?xml version="1.0" encoding="UTF-8" standalone="no"?>
<!DOCTYPE svg PUBLIC "-//W3C//DTD SVG 1.1//EN" "http://www.w3.org/Graphics/SVG/1.1/DTD/svg11.dtd">
<svg xmlns="http://www.w3.org/2000/svg" version="1.1" viewBox="0.00 0.00 810.00 216.00">
<g stroke-width="2.00" fill="none" stroke-linecap="butt">
<path stroke="#9eb1d4" vector-effect="non-scaling-stroke" d="
  M 419.7597 34.4766
  A 18.44 18.07 0.3 0 0 401.4146 16.3102
  A 18.44 18.07 0.3 0 0 382.8803 34.2834
  A 18.44 18.07 0.3 0 0 401.2254 52.4498
  A 18.44 18.07 0.3 0 0 419.7597 34.4766"
/>
<path stroke="#adc6e9" vector-effect="non-scaling-stroke" d="
  M 406.96 171.63
  Q 387.68 172.91 371.68 162.35"
/>
<path stroke="#9eb1d4" vector-effect="non-scaling-stroke" d="
  M 371.68 162.35
  Q 381.53 150.42 390.69 138.71
  C 392.13 136.87 392.13 135.95 390.43 134.37
  Q 384.55 128.90 376.50 122.60
  A 1.33 1.32 32.2 0 0 374.49 123.05
  L 360.23 151.89"
/>
<path stroke="#adc6e9" vector-effect="non-scaling-stroke" d="
  M 360.23 151.89
  Q 353.72 143.57 351.46 134.47
  A 2.93 2.92 87.4 0 0 349.08 132.29
  L 346.30 131.85
  A 1.28 1.28 0.0 0 0 344.85 133.40
  Q 348.07 147.52 357.31 158.05"
/>
<path stroke="#9eb1d4" vector-effect="non-scaling-stroke" d="
  M 357.31 158.05
  Q 362.05 163.20 367.83 167.15"
/>
<path stroke="#adc6e9" vector-effect="non-scaling-stroke" d="
  M 367.83 167.15
  C 378.54 175.20 393.62 178.55 406.75 177.76"
/>
<path stroke="#9eb1d4" vector-effect="non-scaling-stroke" d="
  M 406.75 177.76
  Q 414.84 177.04 422.63 174.56"
/>
<path stroke="#adc6e9" vector-effect="non-scaling-stroke" d="
  M 422.63 174.56
  Q 450.35 164.36 459.61 137.33
  C 465.06 121.42 463.08 101.73 453.02 87.51
  C 445.84 77.36 435.27 69.68 423.87 65.50
  A 0.83 0.83 0.0 0 0 422.78 66.49
  L 424.09 71.37
  A 1.47 1.43 -79.5 0 0 424.62 72.16
  L 427.72 74.54
  A 1.58 1.52 10.1 0 1 428.23 75.24
  L 434.25 92.10
  A 0.46 0.46 0.0 0 1 433.76 92.71
  L 423.30 91.53
  A 1.22 1.22 0.0 0 0 422.04 92.28
  L 420.57 95.86
  A 1.28 1.28 0.0 0 0 421.61 97.62
  L 435.08 99.13
  A 0.47 0.47 0.0 0 1 435.49 99.52
  Q 437.36 109.91 436.82 120.51
  A 0.59 0.59 0.0 0 1 436.23 121.07
  L 422.63 121.07
  A 0.65 0.64 84.5 0 0 422.00 121.84
  L 422.81 125.87
  A 1.35 1.34 -5.8 0 0 424.13 126.94
  L 436.08 126.94
  A 0.41 0.40 4.8 0 1 436.48 127.41
  L 433.90 143.80
  A 1.54 1.54 0.0 0 1 432.21 145.09
  L 429.54 144.79
  A 0.66 0.66 0.0 0 0 428.81 145.58
  L 429.73 150.15
  A 0.75 0.75 0.0 0 0 430.41 150.75
  Q 430.60 150.77 430.87 150.81
  A 0.49 0.48 -76.6 0 1 431.26 151.45
  Q 428.15 160.51 422.79 168.55"
/>
<path stroke="#9eb1d4" vector-effect="non-scaling-stroke" d="
  M 422.79 168.55
  C 423.70 161.79 425.16 154.39 424.51 147.75
  Q 423.86 141.09 423.47 139.25
  C 421.18 128.43 416.14 120.55 409.54 108.99
  Q 407.77 105.89 409.67 103.27
  Q 414.73 96.27 417.26 91.53
  C 419.98 86.42 420.58 83.11 420.61 76.91
  C 420.65 69.95 419.35 64.87 413.62 60.40
  Q 409.70 57.34 402.10 56.63
  C 365.81 53.27 338.21 84.89 341.21 120.23
  C 341.62 125.08 343.80 128.94 349.37 128.13
  C 351.32 127.84 352.82 125.90 353.22 124.19
  C 354.37 119.25 353.66 111.45 356.07 105.12
  C 359.66 95.69 366.61 85.73 375.93 81.41
  A 0.67 0.67 0.0 0 1 376.88 81.99
  Q 376.92 83.27 376.56 84.05
  Q 374.28 88.86 371.37 97.11
  Q 369.55 102.27 369.92 105.49
  C 370.69 112.12 374.81 117.68 380.26 121.02
  C 388.92 126.33 398.66 134.55 402.59 144.07
  Q 405.00 149.87 405.75 155.00
  Q 406.88 162.65 406.96 171.63"
/>
<path stroke="#4c78be" vector-effect="non-scaling-stroke" d="
  M 422.79 168.55
  Q 421.42 171.31 422.63 174.56"
/>
<path stroke="#4c78be" vector-effect="non-scaling-stroke" d="
  M 406.75 177.76
  L 406.96 171.63"
/>
<path stroke="#4c78be" vector-effect="non-scaling-stroke" d="
  M 371.68 162.35
  Q 369.62 163.81 367.83 167.15"
/>
<path stroke="#4c78be" vector-effect="non-scaling-stroke" d="
  M 357.31 158.05
  L 360.23 151.89"
/>
<path stroke="#94aae2" vector-effect="non-scaling-stroke" d="
  M 71.68 164.39
  Q 71.50 171.93 70.69 174.94
  C 68.70 182.23 63.08 188.08 56.11 191.40
  A 0.61 0.60 -27.5 0 0 55.84 192.25
  L 61.71 202.41
  A 0.69 0.68 -27.2 0 0 62.60 202.69
  C 75.02 196.65 83.81 190.16 85.79 176.05
  Q 86.27 172.60 86.29 168.50
  Q 86.38 154.29 86.29 129.05
  A 0.41 0.41 0.0 0 0 85.88 128.64
  L 70.66 128.64
  A 0.64 0.64 0.0 0 0 70.02 129.23
  C 69.68 133.26 70.59 140.93 69.51 145.70
  Q 67.31 155.42 58.41 159.59
  C 53.89 161.71 48.71 161.24 44.70 158.43
  C 35.65 152.07 34.95 133.37 35.42 123.50
  C 35.86 114.28 37.58 104.63 44.02 98.27
  C 52.11 90.27 66.02 94.48 73.49 101.02
  A 0.70 0.70 0.0 0 0 74.51 100.92
  L 81.88 91.31
  A 0.76 0.76 0.0 0 0 81.81 90.31
  C 73.64 82.13 61.56 79.79 50.49 81.33
  C 22.38 85.25 15.84 112.91 17.75 136.99
  C 18.55 147.13 20.91 157.45 27.62 165.13
  C 35.42 174.05 48.54 175.73 59.48 172.54
  C 63.04 171.51 67.19 169.04 69.33 166.34
  Q 70.85 164.43 71.19 164.15
  A 0.30 0.30 0.0 0 1 71.68 164.39"
/>
<path stroke="#94aae2" vector-effect="non-scaling-stroke" d="
  M 158.76 168.86
  L 155.28 157.70
  A 0.53 0.52 70.7 0 0 154.60 157.37
  C 147.82 159.81 139.35 161.89 132.37 160.07
  C 118.75 156.50 116.91 140.13 116.64 128.52
  C 116.41 119.05 117.57 107.64 123.49 100.17
  C 128.58 93.75 137.48 92.33 144.67 95.75
  C 147.05 96.88 149.16 98.80 151.20 100.74
  A 0.67 0.66 41.8 0 0 152.16 100.69
  L 159.81 91.62
  A 1.06 1.05 44.4 0 0 159.79 90.23
  C 151.84 81.50 142.12 79.95 130.71 81.47
  C 118.61 83.09 108.65 90.96 103.70 102.20
  C 97.84 115.50 97.68 131.81 100.41 145.87
  C 101.44 151.15 103.91 157.10 107.11 161.43
  C 113.12 169.57 121.72 173.04 131.88 173.67
  Q 145.18 174.49 158.50 169.41
  A 0.44 0.44 0.0 0 0 158.76 168.86"
/>
<path stroke="#94aae2" vector-effect="non-scaling-stroke" d="
  M 226.76 168.86
  L 223.28 157.70
  A 0.53 0.52 70.7 0 0 222.60 157.37
  C 215.82 159.81 207.35 161.89 200.37 160.07
  C 186.75 156.50 184.91 140.13 184.64 128.52
  C 184.41 119.05 185.57 107.64 191.50 100.17
  C 196.59 93.75 205.49 92.33 212.68 95.75
  C 215.06 96.88 217.17 98.80 219.21 100.74
  A 0.67 0.66 41.8 0 0 220.17 100.69
  L 227.82 91.62
  A 1.06 1.05 44.4 0 0 227.80 90.23
  C 219.85 81.50 210.13 79.95 198.72 81.47
  C 186.62 83.09 176.66 90.96 171.71 102.20
  C 165.84 115.50 165.68 131.81 168.41 145.87
  C 169.44 151.15 171.91 157.10 175.11 161.43
  C 181.12 169.57 189.72 173.04 199.88 173.67
  Q 213.18 174.49 226.50 169.41
  A 0.44 0.44 0.0 0 0 226.76 168.86"
/>
<path stroke="#94aae2" vector-effect="non-scaling-stroke" d="
  M 330.51 168.86
  L 327.03 157.70
  A 0.53 0.52 70.7 0 0 326.35 157.37
  C 319.57 159.81 311.10 161.89 304.12 160.07
  C 290.50 156.50 288.66 140.13 288.39 128.52
  C 288.17 119.05 289.33 107.64 295.25 100.17
  C 300.34 93.75 309.24 92.33 316.43 95.75
  C 318.81 96.88 320.92 98.80 322.96 100.74
  A 0.67 0.66 41.8 0 0 323.92 100.69
  L 331.57 91.62
  A 1.06 1.05 44.4 0 0 331.55 90.23
  C 323.60 81.50 313.88 79.95 302.47 81.47
  C 290.37 83.09 280.41 90.96 275.46 102.20
  C 269.60 115.50 269.43 131.81 272.16 145.87
  C 273.19 151.15 275.66 157.10 278.86 161.43
  C 284.87 169.57 293.47 173.04 303.63 173.67
  Q 316.93 174.49 330.25 169.41
  A 0.44 0.44 0.0 0 0 330.51 168.86"
/>
<path stroke="#94aae2" vector-effect="non-scaling-stroke" d="
  M 735.19 106.65
  L 735.19 116.86
  A 0.58 0.58 0.0 0 0 735.77 117.44
  L 746.83 117.44
  A 0.38 0.38 0.0 0 1 747.21 117.82
  Q 747.17 143.72 747.23 158.49
  C 747.26 169.43 754.25 173.37 764.67 173.47
  Q 773.57 173.54 781.43 170.77
  A 0.64 0.64 0.0 0 0 781.85 170.04
  L 779.91 160.41
  A 0.80 0.79 -14.5 0 0 778.88 159.81
  C 775.06 161.07 763.20 164.43 763.15 156.71
  Q 763.05 139.64 763.10 118.05
  A 0.61 0.61 0.0 0 1 763.71 117.44
  L 777.08 117.44
  A 0.77 0.76 -85.6 0 0 777.83 116.79
  L 779.42 106.73
  A 0.64 0.63 -85.7 0 0 778.80 106.00
  L 763.70 106.00
  A 0.61 0.61 0.0 0 1 763.09 105.39
  L 763.09 88.35
  A 0.64 0.63 -5.6 0 0 762.33 87.73
  L 750.36 90.14
  A 0.78 0.77 -1.7 0 0 749.75 90.78
  L 747.45 105.33
  A 0.79 0.79 0.0 0 1 746.67 106.00
  L 735.84 106.00
  A 0.65 0.65 0.0 0 0 735.19 106.65"
/>
<path stroke="#94aae2" vector-effect="non-scaling-stroke" d="
  M 638.58 147.96
  Q 645.98 147.57 651.32 146.37
  C 664.40 143.44 678.36 134.98 675.48 119.17
  C 673.47 108.11 663.19 103.97 653.06 104.39
  Q 631.37 105.30 623.92 123.70
  Q 621.29 130.18 620.94 138.76
  C 620.44 150.96 623.03 164.34 634.19 170.42
  C 645.91 176.81 662.80 173.88 675.05 167.84
  A 0.27 0.27 0.0 0 0 675.18 167.50
  L 671.87 158.21
  A 0.94 0.94 0.0 0 0 670.62 157.67
  C 662.45 161.16 646.42 166.59 640.53 156.28
  Q 638.44 152.63 637.98 148.67
  A 0.64 0.64 0.0 0 1 638.58 147.96"
/>
<path stroke="#94aae2" vector-effect="non-scaling-stroke" d="
  M 732.73 113.24
  Q 727.64 106.65 721.67 105.34
  Q 705.28 101.75 693.63 112.87
  C 684.58 121.51 682.95 136.82 684.33 148.48
  C 685.56 158.79 690.29 167.80 700.28 171.72
  C 709.88 175.47 722.24 174.19 731.59 170.38
  A 1.01 1.01 0.0 0 0 732.15 169.11
  L 728.98 160.22
  A 0.74 0.74 0.0 0 0 728.06 159.76
  C 722.50 161.40 716.27 163.14 710.88 161.59
  C 704.46 159.74 701.79 151.55 701.21 145.46
  C 700.31 136.01 700.34 116.49 714.81 116.91
  C 719.03 117.03 720.72 119.17 723.78 122.22
  A 0.64 0.64 0.0 0 0 724.68 122.22
  L 732.66 114.24
  A 0.76 0.76 0.0 0 0 732.73 113.24"
/>
<path stroke="#94aae2" vector-effect="non-scaling-stroke" d="
  M 492.58 118.48
  A 0.28 0.28 0.0 0 1 492.06 118.42
  C 490.93 113.80 489.29 109.45 486.02 105.85
  A 0.47 0.45 -30.3 0 0 485.53 105.73
  L 473.59 110.00
  A 0.69 0.68 63.5 0 0 473.25 111.03
  C 478.40 118.78 479.74 129.68 479.78 139.00
  Q 479.84 152.80 479.81 172.33
  A 0.65 0.65 0.0 0 0 480.46 172.98
  L 495.30 172.98
  A 0.39 0.38 90.0 0 0 495.68 172.59
  Q 495.66 152.04 495.71 140.25
  C 495.74 132.22 498.44 123.93 505.14 119.60
  C 508.69 117.31 515.50 116.39 517.81 120.97
  Q 519.92 125.14 519.93 130.50
  Q 519.95 172.44 519.95 172.45
  A 0.51 0.51 0.0 0 0 520.46 172.98
  L 535.05 172.98
  A 0.61 0.61 0.0 0 0 535.66 172.37
  Q 535.69 137.21 535.67 128.75
  C 535.65 121.60 534.37 114.04 529.07 109.09
  C 524.24 104.58 515.61 104.22 509.04 105.71
  Q 497.52 108.33 492.58 118.48"
/>
<path stroke="#94aae2" vector-effect="non-scaling-stroke" d="
  M 565.58 118.48
  A 0.28 0.28 0.0 0 1 565.06 118.42
  C 563.93 113.80 562.29 109.45 559.02 105.85
  A 0.47 0.45 -30.3 0 0 558.53 105.73
  L 546.59 110.00
  A 0.69 0.68 63.5 0 0 546.25 111.03
  C 551.40 118.78 552.74 129.68 552.78 139.00
  Q 552.84 152.81 552.80 172.34
  A 0.65 0.65 0.0 0 0 553.45 172.99
  L 568.30 172.99
  A 0.39 0.38 -90.0 0 0 568.68 172.60
  Q 568.66 152.05 568.71 140.26
  C 568.74 132.23 571.44 123.93 578.14 119.60
  C 581.69 117.31 588.50 116.39 590.81 120.98
  Q 592.92 125.15 592.93 130.51
  Q 592.95 172.45 592.95 172.46
  A 0.51 0.51 0.0 0 0 593.46 172.99
  L 608.05 172.99
  A 0.61 0.61 0.0 0 0 608.66 172.38
  Q 608.69 137.22 608.67 128.76
  C 608.65 121.61 607.37 114.05 602.07 109.09
  C 597.24 104.58 588.61 104.22 582.04 105.71
  Q 570.52 108.33 565.58 118.48"
/>
<path stroke="#adc6e9" vector-effect="non-scaling-stroke" d="
  M 436.48 79.61
  L 440.40 92.17
  A 0.86 0.86 0.0 0 0 441.39 92.76
  L 448.08 91.41
  A 0.38 0.37 66.5 0 0 448.31 90.82
  Q 443.40 84.22 436.89 79.33
  A 0.26 0.26 0.0 0 0 436.48 79.61"
/>
<path stroke="#adc6e9" vector-effect="non-scaling-stroke" d="
  M 441.49 99.55
  Q 443.36 110.10 442.97 120.00
  A 0.74 0.73 -4.4 0 0 443.85 120.75
  L 455.82 118.34
  A 0.79 0.79 0.0 0 0 456.46 117.54
  Q 456.14 106.53 451.99 97.47
  A 0.88 0.88 0.0 0 0 451.01 96.97
  L 442.01 98.77
  A 0.67 0.66 79.0 0 0 441.49 99.55"
/>
<path stroke="#adc6e9" vector-effect="non-scaling-stroke" d="
  M 440.40 144.67
  L 449.22 143.89
  A 2.25 2.23 -80.3 0 0 451.08 142.56
  Q 455.33 132.83 456.13 124.59
  A 0.43 0.43 0.0 0 0 455.58 124.14
  Q 449.53 126.00 443.32 126.43
  A 0.74 0.74 0.0 0 0 442.65 127.05
  L 439.95 144.18
  A 0.42 0.42 0.0 0 0 440.40 144.67"
/>
<path stroke="#adc6e9" vector-effect="non-scaling-stroke" d="
  M 434.01 162.08
  Q 440.64 157.27 445.86 150.83
  A 0.48 0.47 16.7 0 0 445.44 150.06
  L 438.43 150.67
  A 0.66 0.65 8.3 0 0 437.89 151.07
  L 433.53 161.71
  A 0.32 0.31 -7.2 0 0 434.01 162.08"
/>
<path stroke="#94aae2" vector-effect="non-scaling-stroke" d="
  M 637.41 137.17
  A 0.29 0.28 2.7 0 0 637.70 137.48
  Q 646.25 137.35 653.18 133.49
  C 657.59 131.04 661.19 126.10 659.53 120.97
  C 658.06 116.44 653.82 114.90 649.29 115.88
  C 642.19 117.41 638.89 124.66 637.96 131.51
  Q 637.91 131.89 637.41 137.17"
/>
</g>
<path fill="#ffffff" d="
  M 810.00 0.00
  L 810.00 216.00
  L 0.00 216.00
  L 0.00 0.00
  L 810.00 0.00
  Z
  M 419.7597 34.4766
  A 18.44 18.07 0.3 0 0 401.4146 16.3102
  A 18.44 18.07 0.3 0 0 382.8803 34.2834
  A 18.44 18.07 0.3 0 0 401.2254 52.4498
  A 18.44 18.07 0.3 0 0 419.7597 34.4766
  Z
  M 406.96 171.63
  Q 387.68 172.91 371.68 162.35
  Q 381.53 150.42 390.69 138.71
  C 392.13 136.87 392.13 135.95 390.43 134.37
  Q 384.55 128.90 376.50 122.60
  A 1.33 1.32 32.2 0 0 374.49 123.05
  L 360.23 151.89
  Q 353.72 143.57 351.46 134.47
  A 2.93 2.92 87.4 0 0 349.08 132.29
  L 346.30 131.85
  A 1.28 1.28 0.0 0 0 344.85 133.40
  Q 348.07 147.52 357.31 158.05
  Q 362.05 163.20 367.83 167.15
  C 378.54 175.20 393.62 178.55 406.75 177.76
  Q 414.84 177.04 422.63 174.56
  Q 450.35 164.36 459.61 137.33
  C 465.06 121.42 463.08 101.73 453.02 87.51
  C 445.84 77.36 435.27 69.68 423.87 65.50
  A 0.83 0.83 0.0 0 0 422.78 66.49
  L 424.09 71.37
  A 1.47 1.43 -79.5 0 0 424.62 72.16
  L 427.72 74.54
  A 1.58 1.52 10.1 0 1 428.23 75.24
  L 434.25 92.10
  A 0.46 0.46 0.0 0 1 433.76 92.71
  L 423.30 91.53
  A 1.22 1.22 0.0 0 0 422.04 92.28
  L 420.57 95.86
  A 1.28 1.28 0.0 0 0 421.61 97.62
  L 435.08 99.13
  A 0.47 0.47 0.0 0 1 435.49 99.52
  Q 437.36 109.91 436.82 120.51
  A 0.59 0.59 0.0 0 1 436.23 121.07
  L 422.63 121.07
  A 0.65 0.64 84.5 0 0 422.00 121.84
  L 422.81 125.87
  A 1.35 1.34 -5.8 0 0 424.13 126.94
  L 436.08 126.94
  A 0.41 0.40 4.8 0 1 436.48 127.41
  L 433.90 143.80
  A 1.54 1.54 0.0 0 1 432.21 145.09
  L 429.54 144.79
  A 0.66 0.66 0.0 0 0 428.81 145.58
  L 429.73 150.15
  A 0.75 0.75 0.0 0 0 430.41 150.75
  Q 430.60 150.77 430.87 150.81
  A 0.49 0.48 -76.6 0 1 431.26 151.45
  Q 428.15 160.51 422.79 168.55
  C 423.70 161.79 425.16 154.39 424.51 147.75
  Q 423.86 141.09 423.47 139.25
  C 421.18 128.43 416.14 120.55 409.54 108.99
  Q 407.77 105.89 409.67 103.27
  Q 414.73 96.27 417.26 91.53
  C 419.98 86.42 420.58 83.11 420.61 76.91
  C 420.65 69.95 419.35 64.87 413.62 60.40
  Q 409.70 57.34 402.10 56.63
  C 365.81 53.27 338.21 84.89 341.21 120.23
  C 341.62 125.08 343.80 128.94 349.37 128.13
  C 351.32 127.84 352.82 125.90 353.22 124.19
  C 354.37 119.25 353.66 111.45 356.07 105.12
  C 359.66 95.69 366.61 85.73 375.93 81.41
  A 0.67 0.67 0.0 0 1 376.88 81.99
  Q 376.92 83.27 376.56 84.05
  Q 374.28 88.86 371.37 97.11
  Q 369.55 102.27 369.92 105.49
  C 370.69 112.12 374.81 117.68 380.26 121.02
  C 388.92 126.33 398.66 134.55 402.59 144.07
  Q 405.00 149.87 405.75 155.00
  Q 406.88 162.65 406.96 171.63
  Z
  M 71.68 164.39
  Q 71.50 171.93 70.69 174.94
  C 68.70 182.23 63.08 188.08 56.11 191.40
  A 0.61 0.60 -27.5 0 0 55.84 192.25
  L 61.71 202.41
  A 0.69 0.68 -27.2 0 0 62.60 202.69
  C 75.02 196.65 83.81 190.16 85.79 176.05
  Q 86.27 172.60 86.29 168.50
  Q 86.38 154.29 86.29 129.05
  A 0.41 0.41 0.0 0 0 85.88 128.64
  L 70.66 128.64
  A 0.64 0.64 0.0 0 0 70.02 129.23
  C 69.68 133.26 70.59 140.93 69.51 145.70
  Q 67.31 155.42 58.41 159.59
  C 53.89 161.71 48.71 161.24 44.70 158.43
  C 35.65 152.07 34.95 133.37 35.42 123.50
  C 35.86 114.28 37.58 104.63 44.02 98.27
  C 52.11 90.27 66.02 94.48 73.49 101.02
  A 0.70 0.70 0.0 0 0 74.51 100.92
  L 81.88 91.31
  A 0.76 0.76 0.0 0 0 81.81 90.31
  C 73.64 82.13 61.56 79.79 50.49 81.33
  C 22.38 85.25 15.84 112.91 17.75 136.99
  C 18.55 147.13 20.91 157.45 27.62 165.13
  C 35.42 174.05 48.54 175.73 59.48 172.54
  C 63.04 171.51 67.19 169.04 69.33 166.34
  Q 70.85 164.43 71.19 164.15
  A 0.30 0.30 0.0 0 1 71.68 164.39
  Z
  M 158.76 168.86
  L 155.28 157.70
  A 0.53 0.52 70.7 0 0 154.60 157.37
  C 147.82 159.81 139.35 161.89 132.37 160.07
  C 118.75 156.50 116.91 140.13 116.64 128.52
  C 116.41 119.05 117.57 107.64 123.49 100.17
  C 128.58 93.75 137.48 92.33 144.67 95.75
  C 147.05 96.88 149.16 98.80 151.20 100.74
  A 0.67 0.66 41.8 0 0 152.16 100.69
  L 159.81 91.62
  A 1.06 1.05 44.4 0 0 159.79 90.23
  C 151.84 81.50 142.12 79.95 130.71 81.47
  C 118.61 83.09 108.65 90.96 103.70 102.20
  C 97.84 115.50 97.68 131.81 100.41 145.87
  C 101.44 151.15 103.91 157.10 107.11 161.43
  C 113.12 169.57 121.72 173.04 131.88 173.67
  Q 145.18 174.49 158.50 169.41
  A 0.44 0.44 0.0 0 0 158.76 168.86
  Z
  M 226.76 168.86
  L 223.28 157.70
  A 0.53 0.52 70.7 0 0 222.60 157.37
  C 215.82 159.81 207.35 161.89 200.37 160.07
  C 186.75 156.50 184.91 140.13 184.64 128.52
  C 184.41 119.05 185.57 107.64 191.50 100.17
  C 196.59 93.75 205.49 92.33 212.68 95.75
  C 215.06 96.88 217.17 98.80 219.21 100.74
  A 0.67 0.66 41.8 0 0 220.17 100.69
  L 227.82 91.62
  A 1.06 1.05 44.4 0 0 227.80 90.23
  C 219.85 81.50 210.13 79.95 198.72 81.47
  C 186.62 83.09 176.66 90.96 171.71 102.20
  C 165.84 115.50 165.68 131.81 168.41 145.87
  C 169.44 151.15 171.91 157.10 175.11 161.43
  C 181.12 169.57 189.72 173.04 199.88 173.67
  Q 213.18 174.49 226.50 169.41
  A 0.44 0.44 0.0 0 0 226.76 168.86
  Z
  M 330.51 168.86
  L 327.03 157.70
  A 0.53 0.52 70.7 0 0 326.35 157.37
  C 319.57 159.81 311.10 161.89 304.12 160.07
  C 290.50 156.50 288.66 140.13 288.39 128.52
  C 288.17 119.05 289.33 107.64 295.25 100.17
  C 300.34 93.75 309.24 92.33 316.43 95.75
  C 318.81 96.88 320.92 98.80 322.96 100.74
  A 0.67 0.66 41.8 0 0 323.92 100.69
  L 331.57 91.62
  A 1.06 1.05 44.4 0 0 331.55 90.23
  C 323.60 81.50 313.88 79.95 302.47 81.47
  C 290.37 83.09 280.41 90.96 275.46 102.20
  C 269.60 115.50 269.43 131.81 272.16 145.87
  C 273.19 151.15 275.66 157.10 278.86 161.43
  C 284.87 169.57 293.47 173.04 303.63 173.67
  Q 316.93 174.49 330.25 169.41
  A 0.44 0.44 0.0 0 0 330.51 168.86
  Z
  M 735.19 106.65
  L 735.19 116.86
  A 0.58 0.58 0.0 0 0 735.77 117.44
  L 746.83 117.44
  A 0.38 0.38 0.0 0 1 747.21 117.82
  Q 747.17 143.72 747.23 158.49
  C 747.26 169.43 754.25 173.37 764.67 173.47
  Q 773.57 173.54 781.43 170.77
  A 0.64 0.64 0.0 0 0 781.85 170.04
  L 779.91 160.41
  A 0.80 0.79 -14.5 0 0 778.88 159.81
  C 775.06 161.07 763.20 164.43 763.15 156.71
  Q 763.05 139.64 763.10 118.05
  A 0.61 0.61 0.0 0 1 763.71 117.44
  L 777.08 117.44
  A 0.77 0.76 -85.6 0 0 777.83 116.79
  L 779.42 106.73
  A 0.64 0.63 -85.7 0 0 778.80 106.00
  L 763.70 106.00
  A 0.61 0.61 0.0 0 1 763.09 105.39
  L 763.09 88.35
  A 0.64 0.63 -5.6 0 0 762.33 87.73
  L 750.36 90.14
  A 0.78 0.77 -1.7 0 0 749.75 90.78
  L 747.45 105.33
  A 0.79 0.79 0.0 0 1 746.67 106.00
  L 735.84 106.00
  A 0.65 0.65 0.0 0 0 735.19 106.65
  Z
  M 638.58 147.96
  Q 645.98 147.57 651.32 146.37
  C 664.40 143.44 678.36 134.98 675.48 119.17
  C 673.47 108.11 663.19 103.97 653.06 104.39
  Q 631.37 105.30 623.92 123.70
  Q 621.29 130.18 620.94 138.76
  C 620.44 150.96 623.03 164.34 634.19 170.42
  C 645.91 176.81 662.80 173.88 675.05 167.84
  A 0.27 0.27 0.0 0 0 675.18 167.50
  L 671.87 158.21
  A 0.94 0.94 0.0 0 0 670.62 157.67
  C 662.45 161.16 646.42 166.59 640.53 156.28
  Q 638.44 152.63 637.98 148.67
  A 0.64 0.64 0.0 0 1 638.58 147.96
  Z
  M 732.73 113.24
  Q 727.64 106.65 721.67 105.34
  Q 705.28 101.75 693.63 112.87
  C 684.58 121.51 682.95 136.82 684.33 148.48
  C 685.56 158.79 690.29 167.80 700.28 171.72
  C 709.88 175.47 722.24 174.19 731.59 170.38
  A 1.01 1.01 0.0 0 0 732.15 169.11
  L 728.98 160.22
  A 0.74 0.74 0.0 0 0 728.06 159.76
  C 722.50 161.40 716.27 163.14 710.88 161.59
  C 704.46 159.74 701.79 151.55 701.21 145.46
  C 700.31 136.01 700.34 116.49 714.81 116.91
  C 719.03 117.03 720.72 119.17 723.78 122.22
  A 0.64 0.64 0.0 0 0 724.68 122.22
  L 732.66 114.24
  A 0.76 0.76 0.0 0 0 732.73 113.24
  Z
  M 492.58 118.48
  A 0.28 0.28 0.0 0 1 492.06 118.42
  C 490.93 113.80 489.29 109.45 486.02 105.85
  A 0.47 0.45 -30.3 0 0 485.53 105.73
  L 473.59 110.00
  A 0.69 0.68 63.5 0 0 473.25 111.03
  C 478.40 118.78 479.74 129.68 479.78 139.00
  Q 479.84 152.80 479.81 172.33
  A 0.65 0.65 0.0 0 0 480.46 172.98
  L 495.30 172.98
  A 0.39 0.38 90.0 0 0 495.68 172.59
  Q 495.66 152.04 495.71 140.25
  C 495.74 132.22 498.44 123.93 505.14 119.60
  C 508.69 117.31 515.50 116.39 517.81 120.97
  Q 519.92 125.14 519.93 130.50
  Q 519.95 172.44 519.95 172.45
  A 0.51 0.51 0.0 0 0 520.46 172.98
  L 535.05 172.98
  A 0.61 0.61 0.0 0 0 535.66 172.37
  Q 535.69 137.21 535.67 128.75
  C 535.65 121.60 534.37 114.04 529.07 109.09
  C 524.24 104.58 515.61 104.22 509.04 105.71
  Q 497.52 108.33 492.58 118.48
  Z
  M 565.58 118.48
  A 0.28 0.28 0.0 0 1 565.06 118.42
  C 563.93 113.80 562.29 109.45 559.02 105.85
  A 0.47 0.45 -30.3 0 0 558.53 105.73
  L 546.59 110.00
  A 0.69 0.68 63.5 0 0 546.25 111.03
  C 551.40 118.78 552.74 129.68 552.78 139.00
  Q 552.84 152.81 552.80 172.34
  A 0.65 0.65 0.0 0 0 553.45 172.99
  L 568.30 172.99
  A 0.39 0.38 -90.0 0 0 568.68 172.60
  Q 568.66 152.05 568.71 140.26
  C 568.74 132.23 571.44 123.93 578.14 119.60
  C 581.69 117.31 588.50 116.39 590.81 120.98
  Q 592.92 125.15 592.93 130.51
  Q 592.95 172.45 592.95 172.46
  A 0.51 0.51 0.0 0 0 593.46 172.99
  L 608.05 172.99
  A 0.61 0.61 0.0 0 0 608.66 172.38
  Q 608.69 137.22 608.67 128.76
  C 608.65 121.61 607.37 114.05 602.07 109.09
  C 597.24 104.58 588.61 104.22 582.04 105.71
  Q 570.52 108.33 565.58 118.48
  Z"
/>
<ellipse fill="#3d63a8" cx="0.00" cy="0.00" transform="translate(401.32,34.38) rotate(0.3)" rx="18.44" ry="18.07"/>
<path fill="#3d63a8" d="
  M 422.79 168.55
  Q 421.42 171.31 422.63 174.56
  Q 414.84 177.04 406.75 177.76
  L 406.96 171.63
  Q 406.88 162.65 405.75 155.00
  Q 405.00 149.87 402.59 144.07
  C 398.66 134.55 388.92 126.33 380.26 121.02
  C 374.81 117.68 370.69 112.12 369.92 105.49
  Q 369.55 102.27 371.37 97.11
  Q 374.28 88.86 376.56 84.05
  Q 376.92 83.27 376.88 81.99
  A 0.67 0.67 0.0 0 0 375.93 81.41
  C 366.61 85.73 359.66 95.69 356.07 105.12
  C 353.66 111.45 354.37 119.25 353.22 124.19
  C 352.82 125.90 351.32 127.84 349.37 128.13
  C 343.80 128.94 341.62 125.08 341.21 120.23
  C 338.21 84.89 365.81 53.27 402.10 56.63
  Q 409.70 57.34 413.62 60.40
  C 419.35 64.87 420.65 69.95 420.61 76.91
  C 420.58 83.11 419.98 86.42 417.26 91.53
  Q 414.73 96.27 409.67 103.27
  Q 407.77 105.89 409.54 108.99
  C 416.14 120.55 421.18 128.43 423.47 139.25
  Q 423.86 141.09 424.51 147.75
  C 425.16 154.39 423.70 161.79 422.79 168.55
  Z"
/>
<path fill="#5a8cd3" d="
  M 422.63 174.56
  Q 421.42 171.31 422.79 168.55
  Q 428.15 160.51 431.26 151.45
  A 0.49 0.48 -76.6 0 0 430.87 150.81
  Q 430.60 150.77 430.41 150.75
  A 0.75 0.75 0.0 0 1 429.73 150.15
  L 428.81 145.58
  A 0.66 0.66 0.0 0 1 429.54 144.79
  L 432.21 145.09
  A 1.54 1.54 0.0 0 0 433.90 143.80
  L 436.48 127.41
  A 0.41 0.40 4.8 0 0 436.08 126.94
  L 424.13 126.94
  A 1.35 1.34 -5.8 0 1 422.81 125.87
  L 422.00 121.84
  A 0.65 0.64 84.5 0 1 422.63 121.07
  L 436.23 121.07
  A 0.59 0.59 0.0 0 0 436.82 120.51
  Q 437.36 109.91 435.49 99.52
  A 0.47 0.47 0.0 0 0 435.08 99.13
  L 421.61 97.62
  A 1.28 1.28 0.0 0 1 420.57 95.86
  L 422.04 92.28
  A 1.22 1.22 0.0 0 1 423.30 91.53
  L 433.76 92.71
  A 0.46 0.46 0.0 0 0 434.25 92.10
  L 428.23 75.24
  A 1.58 1.52 10.1 0 0 427.72 74.54
  L 424.62 72.16
  A 1.47 1.43 -79.5 0 1 424.09 71.37
  L 422.78 66.49
  A 0.83 0.83 0.0 0 1 423.87 65.50
  C 435.27 69.68 445.84 77.36 453.02 87.51
  C 463.08 101.73 465.06 121.42 459.61 137.33
  Q 450.35 164.36 422.63 174.56
  Z
  M 436.48 79.61
  L 440.40 92.17
  A 0.86 0.86 0.0 0 0 441.39 92.76
  L 448.08 91.41
  A 0.38 0.37 66.5 0 0 448.31 90.82
  Q 443.40 84.22 436.89 79.33
  A 0.26 0.26 0.0 0 0 436.48 79.61
  Z
  M 441.49 99.55
  Q 443.36 110.10 442.97 120.00
  A 0.74 0.73 -4.4 0 0 443.85 120.75
  L 455.82 118.34
  A 0.79 0.79 0.0 0 0 456.46 117.54
  Q 456.14 106.53 451.99 97.47
  A 0.88 0.88 0.0 0 0 451.01 96.97
  L 442.01 98.77
  A 0.67 0.66 79.0 0 0 441.49 99.55
  Z
  M 440.40 144.67
  L 449.22 143.89
  A 2.25 2.23 -80.3 0 0 451.08 142.56
  Q 455.33 132.83 456.13 124.59
  A 0.43 0.43 0.0 0 0 455.58 124.14
  Q 449.53 126.00 443.32 126.43
  A 0.74 0.74 0.0 0 0 442.65 127.05
  L 439.95 144.18
  A 0.42 0.42 0.0 0 0 440.40 144.67
  Z
  M 434.01 162.08
  Q 440.64 157.27 445.86 150.83
  A 0.48 0.47 16.7 0 0 445.44 150.06
  L 438.43 150.67
  A 0.66 0.65 8.3 0 0 437.89 151.07
  L 433.53 161.71
  A 0.32 0.31 -7.2 0 0 434.01 162.08
  Z"
/>
<path fill="#ffffff" d="
  M 436.89 79.33
  Q 443.40 84.22 448.31 90.82
  A 0.38 0.37 66.5 0 1 448.08 91.41
  L 441.39 92.76
  A 0.86 0.86 0.0 0 1 440.40 92.17
  L 436.48 79.61
  A 0.26 0.26 0.0 0 1 436.89 79.33
  Z"
/>
<path fill="#2854c5" d="
  M 71.19 164.15
  Q 70.85 164.43 69.33 166.34
  C 67.19 169.04 63.04 171.51 59.48 172.54
  C 48.54 175.73 35.42 174.05 27.62 165.13
  C 20.91 157.45 18.55 147.13 17.75 136.99
  C 15.84 112.91 22.38 85.25 50.49 81.33
  C 61.56 79.79 73.64 82.13 81.81 90.31
  A 0.76 0.76 0.0 0 1 81.88 91.31
  L 74.51 100.92
  A 0.70 0.70 0.0 0 1 73.49 101.02
  C 66.02 94.48 52.11 90.27 44.02 98.27
  C 37.58 104.63 35.86 114.28 35.42 123.50
  C 34.95 133.37 35.65 152.07 44.70 158.43
  C 48.71 161.24 53.89 161.71 58.41 159.59
  Q 67.31 155.42 69.51 145.70
  C 70.59 140.93 69.68 133.26 70.02 129.23
  A 0.64 0.64 0.0 0 1 70.66 128.64
  L 85.88 128.64
  A 0.41 0.41 0.0 0 1 86.29 129.05
  Q 86.38 154.29 86.29 168.50
  Q 86.27 172.60 85.79 176.05
  C 83.81 190.16 75.02 196.65 62.60 202.69
  A 0.69 0.68 -27.2 0 1 61.71 202.41
  L 55.84 192.25
  A 0.61 0.60 -27.5 0 1 56.11 191.40
  C 63.08 188.08 68.70 182.23 70.69 174.94
  Q 71.50 171.93 71.68 164.39
  A 0.30 0.30 0.0 0 0 71.19 164.15
  Z"
/>
<path fill="#2854c5" d="
  M 158.76 168.86
  A 0.44 0.44 0.0 0 1 158.50 169.41
  Q 145.18 174.49 131.88 173.67
  C 121.72 173.04 113.12 169.57 107.11 161.43
  C 103.91 157.10 101.44 151.15 100.41 145.87
  C 97.68 131.81 97.84 115.50 103.70 102.20
  C 108.65 90.96 118.61 83.09 130.71 81.47
  C 142.12 79.95 151.84 81.50 159.79 90.23
  A 1.06 1.05 44.4 0 1 159.81 91.62
  L 152.16 100.69
  A 0.67 0.66 41.8 0 1 151.20 100.74
  C 149.16 98.80 147.05 96.88 144.67 95.75
  C 137.48 92.33 128.58 93.75 123.49 100.17
  C 117.57 107.64 116.41 119.05 116.64 128.52
  C 116.91 140.13 118.75 156.50 132.37 160.07
  C 139.35 161.89 147.82 159.81 154.60 157.37
  A 0.53 0.52 70.7 0 1 155.28 157.70
  L 158.76 168.86
  Z"
/>
<path fill="#2854c5" d="
  M 226.76 168.86
  A 0.44 0.44 0.0 0 1 226.50 169.41
  Q 213.18 174.49 199.88 173.67
  C 189.72 173.04 181.12 169.57 175.11 161.43
  C 171.91 157.10 169.44 151.15 168.41 145.87
  C 165.68 131.81 165.84 115.50 171.71 102.20
  C 176.66 90.96 186.62 83.09 198.72 81.47
  C 210.13 79.95 219.85 81.50 227.80 90.23
  A 1.06 1.05 44.4 0 1 227.82 91.62
  L 220.17 100.69
  A 0.67 0.66 41.8 0 1 219.21 100.74
  C 217.17 98.80 215.06 96.88 212.68 95.75
  C 205.49 92.33 196.59 93.75 191.50 100.17
  C 185.57 107.64 184.41 119.05 184.64 128.52
  C 184.91 140.13 186.75 156.50 200.37 160.07
  C 207.35 161.89 215.82 159.81 222.60 157.37
  A 0.53 0.52 70.7 0 1 223.28 157.70
  L 226.76 168.86
  Z"
/>
<path fill="#2854c5" d="
  M 330.51 168.86
  A 0.44 0.44 0.0 0 1 330.25 169.41
  Q 316.93 174.49 303.63 173.67
  C 293.47 173.04 284.87 169.57 278.86 161.43
  C 275.66 157.10 273.19 151.15 272.16 145.87
  C 269.43 131.81 269.60 115.50 275.46 102.20
  C 280.41 90.96 290.37 83.09 302.47 81.47
  C 313.88 79.95 323.60 81.50 331.55 90.23
  A 1.06 1.05 44.4 0 1 331.57 91.62
  L 323.92 100.69
  A 0.67 0.66 41.8 0 1 322.96 100.74
  C 320.92 98.80 318.81 96.88 316.43 95.75
  C 309.24 92.33 300.34 93.75 295.25 100.17
  C 289.33 107.64 288.17 119.05 288.39 128.52
  C 288.66 140.13 290.50 156.50 304.12 160.07
  C 311.10 161.89 319.57 159.81 326.35 157.37
  A 0.53 0.52 70.7 0 1 327.03 157.70
  L 330.51 168.86
  Z"
/>
<path fill="#2854c5" d="
  M 735.84 106.00
  L 746.67 106.00
  A 0.79 0.79 0.0 0 0 747.45 105.33
  L 749.75 90.78
  A 0.78 0.77 -1.7 0 1 750.36 90.14
  L 762.33 87.73
  A 0.64 0.63 -5.6 0 1 763.09 88.35
  L 763.09 105.39
  A 0.61 0.61 0.0 0 0 763.70 106.00
  L 778.80 106.00
  A 0.64 0.63 -85.7 0 1 779.42 106.73
  L 777.83 116.79
  A 0.77 0.76 -85.6 0 1 777.08 117.44
  L 763.71 117.44
  A 0.61 0.61 0.0 0 0 763.10 118.05
  Q 763.05 139.64 763.15 156.71
  C 763.20 164.43 775.06 161.07 778.88 159.81
  A 0.80 0.79 -14.5 0 1 779.91 160.41
  L 781.85 170.04
  A 0.64 0.64 0.0 0 1 781.43 170.77
  Q 773.57 173.54 764.67 173.47
  C 754.25 173.37 747.26 169.43 747.23 158.49
  Q 747.17 143.72 747.21 117.82
  A 0.38 0.38 0.0 0 0 746.83 117.44
  L 735.77 117.44
  A 0.58 0.58 0.0 0 1 735.19 116.86
  L 735.19 106.65
  A 0.65 0.65 0.0 0 1 735.84 106.00
  Z"
/>
<path fill="#ffffff" d="
  M 442.01 98.77
  L 451.01 96.97
  A 0.88 0.88 0.0 0 1 451.99 97.47
  Q 456.14 106.53 456.46 117.54
  A 0.79 0.79 0.0 0 1 455.82 118.34
  L 443.85 120.75
  A 0.74 0.73 -4.4 0 1 442.97 120.00
  Q 443.36 110.10 441.49 99.55
  A 0.67 0.66 79.0 0 1 442.01 98.77
  Z"
/>
<path fill="#2854c5" d="
  M 637.98 148.67
  Q 638.44 152.63 640.53 156.28
  C 646.42 166.59 662.45 161.16 670.62 157.67
  A 0.94 0.94 0.0 0 1 671.87 158.21
  L 675.18 167.50
  A 0.27 0.27 0.0 0 1 675.05 167.84
  C 662.80 173.88 645.91 176.81 634.19 170.42
  C 623.03 164.34 620.44 150.96 620.94 138.76
  Q 621.29 130.18 623.92 123.70
  Q 631.37 105.30 653.06 104.39
  C 663.19 103.97 673.47 108.11 675.48 119.17
  C 678.36 134.98 664.40 143.44 651.32 146.37
  Q 645.98 147.57 638.58 147.96
  A 0.64 0.64 0.0 0 0 637.98 148.67
  Z
  M 637.41 137.17
  A 0.29 0.28 2.7 0 0 637.70 137.48
  Q 646.25 137.35 653.18 133.49
  C 657.59 131.04 661.19 126.10 659.53 120.97
  C 658.06 116.44 653.82 114.90 649.29 115.88
  C 642.19 117.41 638.89 124.66 637.96 131.51
  Q 637.91 131.89 637.41 137.17
  Z"
/>
<path fill="#2854c5" d="
  M 732.66 114.24
  L 724.68 122.22
  A 0.64 0.64 0.0 0 1 723.78 122.22
  C 720.72 119.17 719.03 117.03 714.81 116.91
  C 700.34 116.49 700.31 136.01 701.21 145.46
  C 701.79 151.55 704.46 159.74 710.88 161.59
  C 716.27 163.14 722.50 161.40 728.06 159.76
  A 0.74 0.74 0.0 0 1 728.98 160.22
  L 732.15 169.11
  A 1.01 1.01 0.0 0 1 731.59 170.38
  C 722.24 174.19 709.88 175.47 700.28 171.72
  C 690.29 167.80 685.56 158.79 684.33 148.48
  C 682.95 136.82 684.58 121.51 693.63 112.87
  Q 705.28 101.75 721.67 105.34
  Q 727.64 106.65 732.73 113.24
  A 0.76 0.76 0.0 0 1 732.66 114.24
  Z"
/>
<path fill="#2854c5" d="
  M 492.58 118.48
  Q 497.52 108.33 509.04 105.71
  C 515.61 104.22 524.24 104.58 529.07 109.09
  C 534.37 114.04 535.65 121.60 535.67 128.75
  Q 535.69 137.21 535.66 172.37
  A 0.61 0.61 0.0 0 1 535.05 172.98
  L 520.46 172.98
  A 0.51 0.51 0.0 0 1 519.95 172.45
  Q 519.95 172.44 519.93 130.50
  Q 519.92 125.14 517.81 120.97
  C 515.50 116.39 508.69 117.31 505.14 119.60
  C 498.44 123.93 495.74 132.22 495.71 140.25
  Q 495.66 152.04 495.68 172.59
  A 0.39 0.38 90.0 0 1 495.30 172.98
  L 480.46 172.98
  A 0.65 0.65 0.0 0 1 479.81 172.33
  Q 479.84 152.80 479.78 139.00
  C 479.74 129.68 478.40 118.78 473.25 111.03
  A 0.69 0.68 63.5 0 1 473.59 110.00
  L 485.53 105.73
  A 0.47 0.45 -30.3 0 1 486.02 105.85
  C 489.29 109.45 490.93 113.80 492.06 118.42
  A 0.28 0.28 0.0 0 0 492.58 118.48
  Z"
/>
<path fill="#2854c5" d="
  M 565.58 118.48
  Q 570.52 108.33 582.04 105.71
  C 588.61 104.22 597.24 104.58 602.07 109.09
  C 607.37 114.05 608.65 121.61 608.67 128.76
  Q 608.69 137.22 608.66 172.38
  A 0.61 0.61 0.0 0 1 608.05 172.99
  L 593.46 172.99
  A 0.51 0.51 0.0 0 1 592.95 172.46
  Q 592.95 172.45 592.93 130.51
  Q 592.92 125.15 590.81 120.98
  C 588.50 116.39 581.69 117.31 578.14 119.60
  C 571.44 123.93 568.74 132.23 568.71 140.26
  Q 568.66 152.05 568.68 172.60
  A 0.39 0.38 -90.0 0 1 568.30 172.99
  L 553.45 172.99
  A 0.65 0.65 0.0 0 1 552.80 172.34
  Q 552.84 152.81 552.78 139.00
  C 552.74 129.68 551.40 118.78 546.25 111.03
  A 0.69 0.68 63.5 0 1 546.59 110.00
  L 558.53 105.73
  A 0.47 0.45 -30.3 0 1 559.02 105.85
  C 562.29 109.45 563.93 113.80 565.06 118.42
  A 0.28 0.28 0.0 0 0 565.58 118.48
  Z"
/>
<path fill="#ffffff" d="
  M 637.41 137.17
  Q 637.91 131.89 637.96 131.51
  C 638.89 124.66 642.19 117.41 649.29 115.88
  C 653.82 114.90 658.06 116.44 659.53 120.97
  C 661.19 126.10 657.59 131.04 653.18 133.49
  Q 646.25 137.35 637.70 137.48
  A 0.29 0.28 2.7 0 1 637.41 137.17
  Z"
/>
<path fill="#3d63a8" d="
  M 371.68 162.35
  Q 369.62 163.81 367.83 167.15
  Q 362.05 163.20 357.31 158.05
  L 360.23 151.89
  L 374.49 123.05
  A 1.33 1.32 32.2 0 1 376.50 122.60
  Q 384.55 128.90 390.43 134.37
  C 392.13 135.95 392.13 136.87 390.69 138.71
  Q 381.53 150.42 371.68 162.35
  Z"
/>
<path fill="#ffffff" d="
  M 439.95 144.18
  L 442.65 127.05
  A 0.74 0.74 0.0 0 1 443.32 126.43
  Q 449.53 126.00 455.58 124.14
  A 0.43 0.43 0.0 0 1 456.13 124.59
  Q 455.33 132.83 451.08 142.56
  A 2.25 2.23 -80.3 0 1 449.22 143.89
  L 440.40 144.67
  A 0.42 0.42 0.0 0 1 439.95 144.18
  Z"
/>
<path fill="#5a8cd3" d="
  M 360.23 151.89
  L 357.31 158.05
  Q 348.07 147.52 344.85 133.40
  A 1.28 1.28 0.0 0 1 346.30 131.85
  L 349.08 132.29
  A 2.93 2.92 87.4 0 1 351.46 134.47
  Q 353.72 143.57 360.23 151.89
  Z"
/>
<path fill="#ffffff" d="
  M 433.53 161.71
  L 437.89 151.07
  A 0.66 0.65 8.3 0 1 438.43 150.67
  L 445.44 150.06
  A 0.48 0.47 16.7 0 1 445.86 150.83
  Q 440.64 157.27 434.01 162.08
  A 0.32 0.31 -7.2 0 1 433.53 161.71
  Z"
/>
<path fill="#5a8cd3" d="
  M 371.68 162.35
  Q 387.68 172.91 406.96 171.63
  L 406.75 177.76
  C 393.62 178.55 378.54 175.20 367.83 167.15
  Q 369.62 163.81 371.68 162.35
  Z"
/>
</svg>
